# xmcd CD database file
#
# Track frame offsets:
#	150
#	15555
#	37000
#	66457
#	82040
#	108862
#	130662
#	152797
#	168805
#	184600
#	208560
#	223987
#
# Disc length: 3264 seconds
#
# Revision: 0
# Processed by: cddbd v1.5.1PL2 Copyright (c) Steve Scherf et al.
# Submitted via: CDex 1.51
#
DISCID=a30cbe0c
DTITLE=The Roosters - DIS+Good Dreams
DYEAR=1984
DGENRE=JPop
TTITLE0=She broke my heart's edge
TTITLE1=I'm swayin' in the air
TTITLE2=She made me cry
TTITLE3=desire
TTITLE4=Sad Song
TTITLE5=風の中に消えた
TTITLE6=夜に濡れたい
TTITLE7=Je suis le vent
TTITLE8=ゴミ
TTITLE9=Good Dreams
TTITLE10=Hard Rain
TTITLE11=All Alone
EXTD=YEAR: 1984
EXTT0=
EXTT1=
EXTT2=
EXTT3=
EXTT4=
EXTT5=
EXTT6=
EXTT7=
EXTT8=
EXTT9=
EXTT10=
EXTT11=
PLAYORDER=
